<svg xmlns="http://www.w3.org/2000/svg" xmlns:xlink="http://www.w3.org/1999/xlink" width="100" zoomAndPan="magnify" viewBox="0 0 75 74.999997" height="100" preserveAspectRatio="xMidYMid meet" version="1.0"><defs><g/></defs><rect x="-7.5" width="90" fill="#ffffff" y="-7.5" height="89.999996" fill-opacity="1"/><rect x="-7.5" width="90" fill="#080808" y="-7.5" height="89.999996" fill-opacity="1"/><g fill="#f8f8f8" fill-opacity="1"><g transform="translate(1.406251, 52.73356)"><g><path d="M 6.421875 0 L 6.421875 -50.671875 L 17.34375 -50.671875 C 36.65625 -50.671875 46.3125 -42.296875 46.3125 -25.546875 C 46.3125 -17.359375 43.96875 -11.050781 39.28125 -6.625 C 34.59375 -2.207031 27.734375 0 18.703125 0 Z M 8.640625 -1.921875 L 18.484375 -1.921875 C 35.515625 -1.921875 44.03125 -9.796875 44.03125 -25.546875 C 44.03125 -33.347656 41.875 -39.160156 37.5625 -42.984375 C 33.257812 -46.816406 26.640625 -48.734375 17.703125 -48.734375 L 8.640625 -48.734375 Z M 8.640625 -1.921875 "/></g></g></g><g fill="#f8f8f8" fill-opacity="1"><g transform="translate(32.390658, 61.954407)"><g><path d="M 37.328125 -50.671875 L 39.53125 -50.671875 L 19.90625 0 L 17.484375 0 L 1.421875 -50.671875 L 3.703125 -50.671875 L 18.765625 -2.28125 Z M 37.328125 -50.671875 "/></g></g></g><g fill="#f8f8f8" fill-opacity="1"><g transform="translate(3.700668, 71.169463)"><g><path d="M 0.640625 0 L 0.640625 -5.09375 L 1.75 -5.09375 C 3.6875 -5.09375 4.65625 -4.25 4.65625 -2.5625 C 4.65625 -1.738281 4.414062 -1.101562 3.9375 -0.65625 C 3.46875 -0.21875 2.78125 0 1.875 0 Z M 0.875 -0.1875 L 1.859375 -0.1875 C 3.566406 -0.1875 4.421875 -0.976562 4.421875 -2.5625 C 4.421875 -3.351562 4.203125 -3.9375 3.765625 -4.3125 C 3.335938 -4.695312 2.675781 -4.890625 1.78125 -4.890625 L 0.875 -4.890625 Z M 0.875 -0.1875 "/></g></g></g><g fill="#f8f8f8" fill-opacity="1"><g transform="translate(10.613942, 71.169463)"><g><path d="M 0.234375 0 L 2.296875 -5.09375 L 2.5 -5.09375 L 4.484375 0 L 4.25 0 L 3.671875 -1.53125 L 1.078125 -1.53125 L 0.453125 0 Z M 1.15625 -1.734375 L 3.578125 -1.734375 L 2.40625 -4.8125 Z M 1.15625 -1.734375 "/></g></g></g><g fill="#f8f8f8" fill-opacity="1"><g transform="translate(17.103674, 71.169463)"><g><path d="M 3.75 -5.09375 L 3.96875 -5.09375 L 2 0 L 1.75 0 L 0.140625 -5.09375 L 0.375 -5.09375 L 1.890625 -0.234375 Z M 3.75 -5.09375 "/></g></g></g><g fill="#f8f8f8" fill-opacity="1"><g transform="translate(22.782219, 71.169463)"><g><path d="M 0.640625 0 L 0.640625 -5.09375 L 0.875 -5.09375 L 0.875 0 Z M 0.640625 0 "/></g></g></g><g fill="#f8f8f8" fill-opacity="1"><g transform="translate(26.041561, 71.169463)"><g><path d="M 0.640625 0 L 0.640625 -5.09375 L 1.75 -5.09375 C 3.6875 -5.09375 4.65625 -4.25 4.65625 -2.5625 C 4.65625 -1.738281 4.414062 -1.101562 3.9375 -0.65625 C 3.46875 -0.21875 2.78125 0 1.875 0 Z M 0.875 -0.1875 L 1.859375 -0.1875 C 3.566406 -0.1875 4.421875 -0.976562 4.421875 -2.5625 C 4.421875 -3.351562 4.203125 -3.9375 3.765625 -4.3125 C 3.335938 -4.695312 2.675781 -4.890625 1.78125 -4.890625 L 0.875 -4.890625 Z M 0.875 -0.1875 "/></g></g></g><g fill="#f8f8f8" fill-opacity="1"><g transform="translate(32.954835, 71.169463)"><g/></g></g><g fill="#f8f8f8" fill-opacity="1"><g transform="translate(36.250073, 71.169463)"><g><path d="M 3.75 -5.09375 L 3.96875 -5.09375 L 2 0 L 1.75 0 L 0.140625 -5.09375 L 0.375 -5.09375 L 1.890625 -0.234375 Z M 3.75 -5.09375 "/></g></g></g><g fill="#f8f8f8" fill-opacity="1"><g transform="translate(41.92862, 71.169463)"><g><path d="M 0.234375 0 L 2.296875 -5.09375 L 2.5 -5.09375 L 4.484375 0 L 4.25 0 L 3.671875 -1.53125 L 1.078125 -1.53125 L 0.453125 0 Z M 1.15625 -1.734375 L 3.578125 -1.734375 L 2.40625 -4.8125 Z M 1.15625 -1.734375 "/></g></g></g><g fill="#f8f8f8" fill-opacity="1"><g transform="translate(48.41835, 71.169463)"><g><path d="M 4.015625 -0.265625 L 4.0625 -0.09375 C 4 -0.0507812 3.929688 -0.0195312 3.859375 0 C 3.796875 0.0078125 3.726562 0.015625 3.65625 0.015625 C 3.488281 0.015625 3.335938 -0.0195312 3.203125 -0.09375 C 3.066406 -0.164062 2.921875 -0.316406 2.765625 -0.546875 L 1.640625 -2.1875 C 1.597656 -2.25 1.523438 -2.316406 1.421875 -2.390625 C 1.316406 -2.460938 1.191406 -2.5 1.046875 -2.5 L 0.859375 -2.5 L 0.859375 0 L 0.640625 0 L 0.640625 -5.09375 L 1.9375 -5.09375 C 2.457031 -5.09375 2.851562 -4.976562 3.125 -4.75 C 3.394531 -4.519531 3.53125 -4.210938 3.53125 -3.828125 C 3.53125 -3.429688 3.390625 -3.109375 3.109375 -2.859375 C 2.828125 -2.617188 2.4375 -2.5 1.9375 -2.5 L 1.53125 -2.5 C 1.613281 -2.46875 1.6875 -2.414062 1.75 -2.34375 C 1.8125 -2.28125 1.890625 -2.1875 1.984375 -2.0625 L 2.875 -0.734375 C 2.988281 -0.578125 3.082031 -0.457031 3.15625 -0.375 C 3.226562 -0.289062 3.300781 -0.234375 3.375 -0.203125 C 3.457031 -0.171875 3.554688 -0.15625 3.671875 -0.15625 C 3.734375 -0.15625 3.789062 -0.164062 3.84375 -0.1875 C 3.90625 -0.207031 3.960938 -0.234375 4.015625 -0.265625 Z M 1.921875 -4.890625 L 0.859375 -4.890625 L 0.859375 -2.6875 L 1.890625 -2.6875 C 2.335938 -2.6875 2.6875 -2.78125 2.9375 -2.96875 C 3.1875 -3.164062 3.3125 -3.441406 3.3125 -3.796875 C 3.3125 -4.128906 3.203125 -4.394531 2.984375 -4.59375 C 2.765625 -4.789062 2.410156 -4.890625 1.921875 -4.890625 Z M 1.921875 -4.890625 "/></g></g></g><g fill="#f8f8f8" fill-opacity="1"><g transform="translate(54.061005, 71.169463)"><g><path d="M 2.984375 -2.3125 L 4.546875 -2.3125 L 4.546875 0 L 4.390625 0 L 4.34375 -0.859375 C 4.1875 -0.554688 3.972656 -0.328125 3.703125 -0.171875 C 3.429688 -0.0234375 3.097656 0.046875 2.703125 0.046875 C 2.242188 0.046875 1.851562 -0.0507812 1.53125 -0.25 C 1.207031 -0.445312 0.957031 -0.726562 0.78125 -1.09375 C 0.601562 -1.46875 0.515625 -1.921875 0.515625 -2.453125 C 0.515625 -2.992188 0.609375 -3.460938 0.796875 -3.859375 C 0.992188 -4.265625 1.265625 -4.582031 1.609375 -4.8125 C 1.960938 -5.039062 2.375 -5.15625 2.84375 -5.15625 C 3.21875 -5.15625 3.546875 -5.078125 3.828125 -4.921875 C 4.117188 -4.765625 4.34375 -4.535156 4.5 -4.234375 L 4.328125 -4.09375 C 4.171875 -4.375 3.972656 -4.582031 3.734375 -4.71875 C 3.492188 -4.863281 3.179688 -4.9375 2.796875 -4.9375 C 2.390625 -4.9375 2.03125 -4.832031 1.71875 -4.625 C 1.414062 -4.414062 1.175781 -4.125 1 -3.75 C 0.820312 -3.375 0.734375 -2.941406 0.734375 -2.453125 C 0.734375 -1.710938 0.898438 -1.144531 1.234375 -0.75 C 1.578125 -0.363281 2.070312 -0.171875 2.71875 -0.171875 C 3.257812 -0.171875 3.664062 -0.3125 3.9375 -0.59375 C 4.207031 -0.882812 4.34375 -1.269531 4.34375 -1.75 L 4.34375 -2.109375 L 2.984375 -2.109375 Z M 2.984375 -2.3125 "/></g></g></g><g fill="#f8f8f8" fill-opacity="1"><g transform="translate(60.873778, 71.169463)"><g><path d="M 0.234375 0 L 2.296875 -5.09375 L 2.5 -5.09375 L 4.484375 0 L 4.25 0 L 3.671875 -1.53125 L 1.078125 -1.53125 L 0.453125 0 Z M 1.15625 -1.734375 L 3.578125 -1.734375 L 2.40625 -4.8125 Z M 1.15625 -1.734375 "/></g></g></g><g fill="#f8f8f8" fill-opacity="1"><g transform="translate(67.363511, 71.169463)"><g><path d="M 2.0625 0.046875 C 1.539062 0.046875 1.128906 -0.078125 0.828125 -0.328125 C 0.523438 -0.578125 0.34375 -0.96875 0.28125 -1.5 L 0.5 -1.515625 C 0.582031 -1.023438 0.742188 -0.675781 0.984375 -0.46875 C 1.234375 -0.269531 1.597656 -0.171875 2.078125 -0.171875 C 2.484375 -0.171875 2.800781 -0.269531 3.03125 -0.46875 C 3.269531 -0.664062 3.390625 -0.929688 3.390625 -1.265625 C 3.390625 -1.503906 3.34375 -1.691406 3.25 -1.828125 C 3.15625 -1.960938 3.003906 -2.070312 2.796875 -2.15625 C 2.597656 -2.238281 2.335938 -2.3125 2.015625 -2.375 C 1.753906 -2.425781 1.515625 -2.492188 1.296875 -2.578125 C 1.078125 -2.671875 0.90625 -2.8125 0.78125 -3 C 0.65625 -3.1875 0.59375 -3.441406 0.59375 -3.765625 C 0.59375 -4.035156 0.65625 -4.273438 0.78125 -4.484375 C 0.90625 -4.691406 1.078125 -4.851562 1.296875 -4.96875 C 1.523438 -5.09375 1.785156 -5.15625 2.078125 -5.15625 C 2.484375 -5.15625 2.816406 -5.046875 3.078125 -4.828125 C 3.335938 -4.609375 3.5 -4.28125 3.5625 -3.84375 L 3.359375 -3.8125 C 3.296875 -4.207031 3.15625 -4.492188 2.9375 -4.671875 C 2.726562 -4.859375 2.441406 -4.953125 2.078125 -4.953125 C 1.691406 -4.953125 1.382812 -4.84375 1.15625 -4.625 C 0.925781 -4.40625 0.8125 -4.117188 0.8125 -3.765625 C 0.8125 -3.503906 0.863281 -3.296875 0.96875 -3.140625 C 1.070312 -2.984375 1.210938 -2.863281 1.390625 -2.78125 C 1.578125 -2.695312 1.804688 -2.628906 2.078125 -2.578125 C 2.441406 -2.503906 2.738281 -2.414062 2.96875 -2.3125 C 3.195312 -2.21875 3.359375 -2.082031 3.453125 -1.90625 C 3.554688 -1.738281 3.609375 -1.523438 3.609375 -1.265625 C 3.609375 -0.992188 3.539062 -0.757812 3.40625 -0.5625 C 3.28125 -0.363281 3.101562 -0.210938 2.875 -0.109375 C 2.644531 -0.00390625 2.375 0.046875 2.0625 0.046875 Z M 2.0625 0.046875 "/></g></g></g></svg>